<svg width="752" height="530" viewBox="0 0 752 530" fill="none" xmlns="http://www.w3.org/2000/svg">
<path d="M170.25 271.5H247.25V316H170.25V271.5ZM174.25 372H115.25V197H257.5V241.5H174.25V372ZM250.791 372L327.291 197H385.291L461.791 372H400.791L344.291 225H367.291L310.791 372H250.791ZM296.291 341.5L311.291 299H391.791L406.791 341.5H296.291ZM560.516 376C546.349 376 533.182 373.75 521.016 369.25C509.016 364.75 498.599 358.417 489.766 350.25C480.932 341.917 474.016 332.167 469.016 321C464.182 309.833 461.766 297.667 461.766 284.5C461.766 271.167 464.182 259 469.016 248C474.016 236.833 480.932 227.167 489.766 219C498.599 210.667 509.016 204.25 521.016 199.75C533.182 195.25 546.349 193 560.516 193C574.849 193 588.016 195.25 600.016 199.75C612.016 204.25 622.432 210.667 631.266 219C640.099 227.167 646.932 236.833 651.766 248C656.766 259 659.266 271.167 659.266 284.5C659.266 297.667 656.766 309.833 651.766 321C646.932 332.167 640.099 341.917 631.266 350.25C622.432 358.417 612.016 364.75 600.016 369.25C588.016 373.75 574.849 376 560.516 376ZM617.766 416.25C609.599 416.25 602.016 415.417 595.016 413.75C588.016 412.25 581.182 409.667 574.516 406C568.016 402.333 561.182 397.25 554.016 390.75C546.849 384.417 538.849 376.5 530.016 367L591.016 352C595.016 358.167 598.432 362.917 601.266 366.25C604.099 369.583 606.849 371.917 609.516 373.25C612.349 374.583 615.516 375.25 619.016 375.25C627.682 375.25 635.766 371.5 643.266 364L668.766 394C656.266 408.833 639.266 416.25 617.766 416.25ZM560.516 328.25C566.016 328.25 571.099 327.25 575.766 325.25C580.599 323.25 584.766 320.417 588.266 316.75C591.932 312.917 594.766 308.333 596.766 303C598.766 297.5 599.766 291.333 599.766 284.5C599.766 277.667 598.766 271.583 596.766 266.25C594.766 260.75 591.932 256.167 588.266 252.5C584.766 248.667 580.599 245.75 575.766 243.75C571.099 241.75 566.016 240.75 560.516 240.75C555.016 240.75 549.849 241.75 545.016 243.75C540.349 245.75 536.182 248.667 532.516 252.5C529.016 256.167 526.266 260.75 524.266 266.25C522.266 271.583 521.266 277.667 521.266 284.5C521.266 291.333 522.266 297.5 524.266 303C526.266 308.333 529.016 312.917 532.516 316.75C536.182 320.417 540.349 323.25 545.016 325.25C549.849 327.25 555.016 328.25 560.516 328.25Z" fill="black"/>
<path d="M170.25 271.5V268.5H167.25V271.5H170.25ZM247.25 271.5H250.25V268.5H247.25V271.5ZM247.25 316V319H250.25V316H247.25ZM170.25 316H167.25V319H170.25V316ZM174.25 372V375H177.25V372H174.25ZM115.25 372H112.25V375H115.25V372ZM115.25 197V194H112.25V197H115.25ZM257.5 197H260.5V194H257.5V197ZM257.5 241.5V244.5H260.5V241.5H257.5ZM174.25 241.5V238.5H171.25V241.5H174.25ZM170.25 274.5H247.25V268.5H170.25V274.5ZM244.25 271.5V316H250.25V271.5H244.25ZM247.25 313H170.25V319H247.25V313ZM173.25 316V271.5H167.25V316H173.25ZM174.25 369H115.25V375H174.25V369ZM118.25 372V197H112.25V372H118.25ZM115.25 200H257.5V194H115.25V200ZM254.5 197V241.5H260.5V197H254.5ZM257.5 238.5H174.25V244.5H257.5V238.5ZM171.25 241.5V372H177.25V241.5H171.25ZM250.791 372L248.042 370.798L246.205 375H250.791V372ZM327.291 197V194H325.328L324.542 195.798L327.291 197ZM385.291 197L388.04 195.798L387.254 194H385.291V197ZM461.791 372V375H466.377L464.54 370.798L461.791 372ZM400.791 372L397.991 373.076L398.73 375H400.791V372ZM344.291 225V222H339.924L341.491 226.076L344.291 225ZM367.291 225L370.091 226.076L371.658 222H367.291V225ZM310.791 372V375H312.852L313.591 373.076L310.791 372ZM296.291 341.5L293.462 340.502L292.051 344.5H296.291V341.5ZM311.291 299V296H309.168L308.462 298.002L311.291 299ZM391.791 299L394.62 298.002L393.914 296H391.791V299ZM406.791 341.5V344.5H411.031L409.62 340.502L406.791 341.5ZM253.54 373.202L330.04 198.202L324.542 195.798L248.042 370.798L253.54 373.202ZM327.291 200H385.291V194H327.291V200ZM382.542 198.202L459.042 373.202L464.54 370.798L388.04 195.798L382.542 198.202ZM461.791 369H400.791V375H461.791V369ZM403.591 370.924L347.091 223.924L341.491 226.076L397.991 373.076L403.591 370.924ZM344.291 228H367.291V222H344.291V228ZM364.491 223.924L307.991 370.924L313.591 373.076L370.091 226.076L364.491 223.924ZM310.791 369H250.791V375H310.791V369ZM299.12 342.498L314.12 299.998L308.462 298.002L293.462 340.502L299.12 342.498ZM311.291 302H391.791V296H311.291V302ZM388.962 299.998L403.962 342.498L409.62 340.502L394.62 298.002L388.962 299.998ZM406.791 338.5H296.291V344.5H406.791V338.5ZM521.016 369.25L519.962 372.059L519.975 372.064L521.016 369.25ZM489.766 350.25L487.707 352.432L487.718 352.443L487.729 352.453L489.766 350.25ZM469.016 321L466.262 322.192L466.27 322.209L466.278 322.226L469.016 321ZM469.016 248L466.278 246.774L466.273 246.784L466.269 246.793L469.016 248ZM489.766 219L491.802 221.203L491.813 221.193L491.824 221.182L489.766 219ZM521.016 199.75L519.975 196.936L519.962 196.941L521.016 199.75ZM600.016 199.75L598.962 202.559L600.016 199.75ZM631.266 219L629.207 221.182L629.218 221.193L629.229 221.203L631.266 219ZM651.766 248L649.012 249.192L649.023 249.217L649.035 249.241L651.766 248ZM651.766 321L649.028 319.774L649.02 319.791L649.012 319.808L651.766 321ZM631.266 350.25L633.302 352.453L633.313 352.443L633.324 352.432L631.266 350.25ZM600.016 369.25L598.962 366.441L600.016 369.25ZM595.016 413.75L595.711 410.832L595.677 410.824L595.644 410.817L595.016 413.75ZM574.516 406L573.042 408.613L573.056 408.621L573.07 408.629L574.516 406ZM554.016 390.75L556.031 388.528L556.017 388.515L556.002 388.502L554.016 390.75ZM530.016 367L529.299 364.087L524.343 365.305L527.819 369.043L530.016 367ZM591.016 352L593.533 350.367L592.371 348.577L590.299 349.087L591.016 352ZM601.266 366.25L598.98 368.193L601.266 366.25ZM609.516 373.25L608.174 375.933L608.206 375.949L608.238 375.964L609.516 373.25ZM643.266 364L645.551 362.057L643.445 359.578L641.144 361.879L643.266 364ZM668.766 394L671.06 395.933L672.696 393.992L671.051 392.057L668.766 394ZM575.766 325.25L574.619 322.478L574.601 322.485L574.584 322.493L575.766 325.25ZM588.266 316.75L586.098 314.676L586.096 314.679L588.266 316.75ZM596.766 303L599.575 304.053L599.58 304.039L599.585 304.025L596.766 303ZM596.766 266.25L593.946 267.275L593.951 267.289L593.957 267.303L596.766 266.25ZM588.266 252.5L586.05 254.523L586.096 254.573L586.144 254.621L588.266 252.5ZM575.766 243.75L574.584 246.507L574.601 246.515L574.619 246.522L575.766 243.75ZM545.016 243.75L543.869 240.978L543.851 240.985L543.834 240.993L545.016 243.75ZM532.516 252.5L530.348 250.426L530.346 250.429L532.516 252.5ZM524.266 266.25L527.075 267.303L527.08 267.289L527.085 267.275L524.266 266.25ZM524.266 303L521.446 304.025L521.451 304.039L521.457 304.053L524.266 303ZM532.516 316.75L530.3 318.773L530.346 318.823L530.394 318.871L532.516 316.75ZM545.016 325.25L543.834 328.007L543.851 328.015L543.869 328.022L545.016 325.25ZM560.516 373C546.671 373 533.86 370.802 522.056 366.436L519.975 372.064C532.504 376.698 546.026 379 560.516 379V373ZM522.069 366.441C510.409 362.068 500.332 355.933 491.802 348.047L487.729 352.453C496.866 360.9 507.622 367.432 519.962 372.059L522.069 366.441ZM491.824 348.068C483.28 340.007 476.594 330.583 471.754 319.774L466.278 322.226C471.438 333.75 478.584 343.826 487.707 352.432L491.824 348.068ZM471.769 319.808C467.111 309.048 464.766 297.291 464.766 284.5H458.766C458.766 298.043 461.253 310.619 466.262 322.192L471.769 319.808ZM464.766 284.5C464.766 271.536 467.113 259.787 471.762 249.207L466.269 246.793C461.251 258.213 458.766 270.797 458.766 284.5H464.766ZM471.754 249.226C476.591 238.422 483.271 229.09 491.802 221.203L487.729 216.797C478.593 225.244 471.44 235.244 466.278 246.774L471.754 249.226ZM491.824 221.182C500.352 213.137 510.421 206.927 522.069 202.559L519.962 196.941C507.61 201.573 496.846 208.196 487.707 216.818L491.824 221.182ZM522.056 202.564C533.86 198.198 546.671 196 560.516 196V190C546.026 190 532.504 192.302 519.975 196.936L522.056 202.564ZM560.516 196C574.532 196 587.337 198.199 598.962 202.559L601.069 196.941C588.695 192.301 575.166 190 560.516 190V196ZM598.962 202.559C610.61 206.927 620.68 213.137 629.207 221.182L633.324 216.818C624.185 208.196 613.421 201.573 601.069 196.941L598.962 202.559ZM629.229 221.203C637.752 229.083 644.343 238.404 649.012 249.192L654.519 246.808C649.522 235.263 642.446 225.251 633.302 216.797L629.229 221.203ZM649.035 249.241C653.84 259.813 656.266 271.55 656.266 284.5H662.266C662.266 270.783 659.692 258.187 654.497 246.759L649.035 249.241ZM656.266 284.5C656.266 297.277 653.842 309.022 649.028 319.774L654.504 322.226C659.689 310.645 662.266 298.057 662.266 284.5H656.266ZM649.012 319.808C644.341 330.602 637.743 340.015 629.207 348.068L633.324 352.432C642.455 343.819 649.524 333.731 654.519 322.192L649.012 319.808ZM629.229 348.047C620.699 355.933 610.622 362.068 598.962 366.441L601.069 372.059C613.409 367.432 624.165 360.9 633.302 352.453L629.229 348.047ZM598.962 366.441C587.337 370.801 574.532 373 560.516 373V379C575.166 379 588.695 376.699 601.069 372.059L598.962 366.441ZM617.766 413.25C609.802 413.25 602.455 412.437 595.711 410.832L594.321 416.668C601.577 418.396 609.396 419.25 617.766 419.25V413.25ZM595.644 410.817C588.947 409.382 582.388 406.906 575.961 403.371L573.07 408.629C579.977 412.427 587.084 415.118 594.387 416.683L595.644 410.817ZM575.99 403.387C569.731 399.857 563.078 394.919 556.031 388.528L552 392.972C559.286 399.581 566.3 404.81 573.042 408.613L575.99 403.387ZM556.002 388.502C548.93 382.252 541.001 374.409 532.213 364.957L527.819 369.043C536.697 378.591 544.768 386.582 552.029 392.998L556.002 388.502ZM530.732 369.913L591.732 354.913L590.299 349.087L529.299 364.087L530.732 369.913ZM588.499 353.633C592.529 359.845 596.026 364.718 598.98 368.193L603.551 364.307C600.839 361.116 597.503 356.488 593.533 350.367L588.499 353.633ZM598.98 368.193C601.963 371.703 605.018 374.355 608.174 375.933L610.857 370.567C608.68 369.478 606.235 367.464 603.551 364.307L598.98 368.193ZM608.238 375.964C611.516 377.507 615.126 378.25 619.016 378.25V372.25C615.905 372.25 613.182 371.66 610.793 370.536L608.238 375.964ZM619.016 378.25C628.649 378.25 637.458 374.05 645.387 366.121L641.144 361.879C634.073 368.95 626.715 372.25 619.016 372.25V378.25ZM640.98 365.943L666.48 395.943L671.051 392.057L645.551 362.057L640.98 365.943ZM666.472 392.067C654.608 406.145 638.489 413.25 617.766 413.25V419.25C640.042 419.25 657.924 411.521 671.06 395.933L666.472 392.067ZM560.516 331.25C566.388 331.25 571.877 330.18 576.947 328.007L574.584 322.493C570.321 324.32 565.644 325.25 560.516 325.25V331.25ZM576.913 328.022C582.119 325.868 586.638 322.8 590.436 318.821L586.096 314.679C582.893 318.033 579.078 320.632 574.619 322.478L576.913 328.022ZM590.434 318.824C594.401 314.676 597.443 309.738 599.575 304.053L593.957 301.947C592.088 306.928 589.464 311.157 586.098 314.676L590.434 318.824ZM599.585 304.025C601.723 298.147 602.766 291.626 602.766 284.5H596.766C596.766 291.041 595.809 296.853 593.946 301.975L599.585 304.025ZM602.766 284.5C602.766 277.377 601.723 270.927 599.575 265.197L593.957 267.303C595.808 272.24 596.766 277.956 596.766 284.5H602.766ZM599.585 265.225C597.455 259.366 594.401 254.393 590.387 250.379L586.144 254.621C589.463 257.94 592.077 262.134 593.946 267.275L599.585 265.225ZM590.481 250.477C586.682 246.316 582.15 243.145 576.913 240.978L574.619 246.522C579.048 248.355 582.849 251.017 586.05 254.523L590.481 250.477ZM576.947 240.993C571.877 238.82 566.388 237.75 560.516 237.75V243.75C565.644 243.75 570.321 244.68 574.584 246.507L576.947 240.993ZM560.516 237.75C554.643 237.75 549.084 238.82 543.869 240.978L546.163 246.522C550.614 244.68 555.389 243.75 560.516 243.75V237.75ZM543.834 240.993C538.779 243.159 534.281 246.314 530.348 250.426L534.684 254.574C538.084 251.019 541.919 248.341 546.197 246.507L543.834 240.993ZM530.346 250.429C526.518 254.438 523.566 259.395 521.446 265.225L527.085 267.275C528.965 262.105 531.513 257.895 534.686 254.571L530.346 250.429ZM521.457 265.197C519.308 270.927 518.266 277.377 518.266 284.5H524.266C524.266 277.956 525.223 272.24 527.075 267.303L521.457 265.197ZM518.266 284.5C518.266 291.626 519.309 298.147 521.446 304.025L527.085 301.975C525.223 296.853 524.266 291.041 524.266 284.5H518.266ZM521.457 304.053C523.578 309.71 526.518 314.631 530.3 318.773L534.731 314.727C531.513 311.203 528.953 306.957 527.075 301.947L521.457 304.053ZM530.394 318.871C534.325 322.802 538.809 325.854 543.834 328.007L546.197 322.493C541.889 320.646 538.04 318.031 534.637 314.629L530.394 318.871ZM543.869 328.022C549.084 330.18 554.643 331.25 560.516 331.25V325.25C555.389 325.25 550.614 324.32 546.163 322.478L543.869 328.022Z" fill="#4CD6D4"/>
<path d="M384.061 528.877C406.679 528.877 425.014 510.54 425.014 487.92C425.014 465.3 406.679 446.963 384.061 446.963C361.444 446.963 343.108 465.3 343.108 487.92C343.108 510.54 361.444 528.877 384.061 528.877Z" fill="#4CD6D4"/>
<path d="M628.717 526.576C651.628 519.694 675.985 512.519 694.155 496.16C710.392 481.542 721.354 459.22 714.627 437.297C707.915 415.419 687.808 400.831 667.049 393.575C655.275 389.46 642.957 387.177 630.644 385.383C617.259 383.434 603.814 381.836 590.376 380.299C535.964 374.075 481.347 370.273 426.525 368.893C399.474 368.211 372.429 368.228 345.374 368.621C321.212 368.971 295.765 368.963 273.351 358.693C255.921 350.706 240.101 336.176 235.244 317.083C229.637 295.042 239.978 272.597 254.812 256.634C262.631 248.22 271.77 241.138 281.197 234.627C291.424 227.562 302.008 220.998 312.82 214.871C334.117 202.809 356.382 192.544 379.384 184.181C390.731 180.055 402.247 176.495 413.862 173.211C423.671 170.438 433.509 167.66 442.989 163.882C461.314 156.578 478.743 144.205 483.403 123.921C487.819 104.697 480.373 83.8275 467.32 69.5462C452.218 53.0236 429.448 45.7807 407.617 44.6088C383.109 43.2932 359.166 49.4275 336.131 57.2127C311.562 65.5162 287.523 75.0638 262.435 81.7896C237.556 88.4526 212.197 93.167 186.586 95.8899C174.049 97.2251 161.133 98.7326 148.521 97.7105C137.951 96.8539 127.435 93.745 119.646 86.2429C112.966 79.8102 108.987 70.9696 110.355 61.64C110.604 59.9455 113.178 60.6659 112.931 62.3501C111.265 73.7068 118.985 84.1717 128.497 89.5323C139.49 95.7278 152.867 95.7362 165.107 95.0277C191.645 93.4247 218.004 89.6139 243.91 83.6349C269.365 77.8203 293.911 69.5081 318.43 60.6287C341.716 52.1956 365.523 43.9648 390.4 42.1382C411.986 40.5533 434.693 43.6983 453.498 54.9801C470.025 64.8952 482.179 81.4303 486.051 100.405C489.835 118.946 484.594 137.609 470.56 150.548C456.029 163.944 436.106 169.672 417.538 174.947C393.988 181.637 370.943 189.458 348.637 199.613C326.027 209.877 304.342 222.069 283.824 236.054C264.019 249.589 244.473 266.62 238.209 290.768C235.291 302.016 235.83 313.946 240.712 324.57C245.053 334.017 252.203 341.963 260.531 348.092C280.403 362.716 305.449 365.718 329.452 366.017C356.411 366.353 383.371 365.443 410.339 365.885C465.298 366.787 520.145 370.133 574.88 375.922C588.595 377.374 602.292 378.979 615.973 380.736C628.278 382.318 640.624 383.889 652.722 386.697C674.234 391.69 695.166 401.292 708.536 419.532C714.47 427.438 718.146 436.808 719.172 446.64C720.108 456.9 717.596 467.18 712.958 476.308C702.691 496.51 683.459 509.361 663.037 517.803C652.098 522.325 640.751 525.75 629.427 529.152C627.777 529.647 627.072 527.07 628.717 526.576Z" fill="#F2F2F2"/>
<path d="M260.312 123.761C272.113 123.761 281.679 114.194 281.679 102.392C281.679 90.5903 272.113 81.0232 260.312 81.0232C248.512 81.0232 238.945 90.5903 238.945 102.392C238.945 114.194 248.512 123.761 260.312 123.761Z" fill="#F2F2F2"/>
<path d="M385.842 42.7375C397.643 42.7375 407.209 33.1704 407.209 21.3688C407.209 9.56712 397.643 0 385.842 0C374.042 0 364.476 9.56712 364.476 21.3688C364.476 33.1704 374.042 42.7375 385.842 42.7375Z" fill="#F2F2F2"/>
<path d="M464.187 133.555C475.988 133.555 485.554 123.988 485.554 112.186C485.554 100.384 475.988 90.8171 464.187 90.8171C452.387 90.8171 442.82 100.384 442.82 112.186C442.82 123.988 452.387 133.555 464.187 133.555Z" fill="#F2F2F2"/>
<path d="M358.244 238.618C370.044 238.618 379.611 229.051 379.611 217.249C379.611 205.447 370.044 195.88 358.244 195.88C346.443 195.88 336.877 205.447 336.877 217.249C336.877 229.051 346.443 238.618 358.244 238.618Z" fill="#F2F2F2"/>
<path d="M223.811 289.369C235.612 289.369 245.178 279.802 245.178 268C245.178 256.198 235.612 246.631 223.811 246.631C212.011 246.631 202.444 256.198 202.444 268C202.444 279.802 212.011 289.369 223.811 289.369Z" fill="#F2F2F2"/>
<path d="M366.256 368.611C378.057 368.611 387.623 359.044 387.623 347.242C387.623 335.441 378.057 325.874 366.256 325.874C354.456 325.874 344.89 335.441 344.89 347.242C344.89 359.044 354.456 368.611 366.256 368.611Z" fill="#F2F2F2"/>
<path d="M519.384 413.129C531.185 413.129 540.751 403.562 540.751 391.76C540.751 379.959 531.185 370.392 519.384 370.392C507.584 370.392 498.018 379.959 498.018 391.76C498.018 403.562 507.584 413.129 519.384 413.129Z" fill="#F2F2F2"/>
<path d="M698.332 403.335C710.132 403.335 719.698 393.768 719.698 381.966C719.698 370.165 710.132 360.598 698.332 360.598C686.531 360.598 676.965 370.165 676.965 381.966C676.965 393.768 686.531 403.335 698.332 403.335Z" fill="#F2F2F2"/>
<path d="M379.675 60.5478C315.671 60.9999 263.265 113.017 262.356 177.022C262.347 177.613 262.343 181.768 262.344 187.203C262.344 195.171 265.509 202.813 271.143 208.447C276.777 214.082 284.418 217.248 292.385 217.249C296.335 217.248 300.246 216.469 303.894 214.956C307.543 213.443 310.857 211.226 313.649 208.431C316.44 205.637 318.653 202.319 320.162 198.669C321.671 195.019 322.446 191.107 322.442 187.157C322.439 183.46 322.438 180.901 322.438 180.744C322.435 170.852 325.008 161.13 329.903 152.534C334.797 143.938 341.845 136.765 350.352 131.719C358.86 126.673 368.534 123.929 378.424 123.757C388.313 123.585 398.077 125.99 406.755 130.737C415.433 135.483 422.727 142.407 427.917 150.827C433.108 159.247 436.018 168.874 436.36 178.76C436.703 188.646 434.466 198.451 429.87 207.21C425.274 215.969 418.477 223.381 410.148 228.716L410.159 228.729C410.159 228.729 367.4 256.259 354.364 294.024L354.375 294.027C352.083 301.764 350.921 309.791 350.927 317.86C350.927 321.177 351.122 350.199 351.499 373.755C351.631 381.883 354.952 389.633 360.746 395.333C366.541 401.034 374.344 404.228 382.472 404.226C386.556 404.225 390.6 403.418 394.37 401.849C398.141 400.28 401.564 397.98 404.443 395.083C407.322 392.186 409.6 388.748 411.145 384.968C412.691 381.187 413.473 377.138 413.448 373.053C413.317 351.481 413.246 326.361 413.246 324.538C413.246 301.349 435.615 278.244 453.989 263.176C475.147 245.826 490.373 222.181 496.488 195.509C497.842 190.018 498.588 184.395 498.714 178.741C498.714 163.147 495.628 147.708 489.635 133.312C483.642 118.916 474.861 105.849 463.796 94.8622C452.73 83.8757 439.601 75.1876 425.164 69.2984C410.726 63.4091 395.266 60.4351 379.675 60.5478Z" fill="#4CD6D4"/>
<path d="M559.498 243.066C574.248 243.066 586.206 231.107 586.206 216.355C586.206 201.603 574.248 189.644 559.498 189.644C544.747 189.644 532.789 201.603 532.789 216.355C532.789 231.107 544.747 243.066 559.498 243.066Z" fill="#2F2E41"/>
<path d="M510.142 518.307H499.228L494.035 476.204H510.145L510.142 518.307Z" fill="#A0616A"/>
<path d="M491.431 515.188H512.481V528.443H478.178C478.178 526.702 478.521 524.979 479.187 523.37C479.853 521.762 480.829 520.301 482.06 519.07C483.29 517.839 484.751 516.863 486.359 516.197C487.967 515.531 489.691 515.188 491.431 515.188Z" fill="#2F2E41"/>
<path d="M594.72 518.307H583.806L578.613 476.204H594.723L594.72 518.307Z" fill="#A0616A"/>
<path d="M576.009 515.188H597.059V528.443H562.756C562.756 526.702 563.099 524.979 563.765 523.37C564.431 521.762 565.407 520.301 566.638 519.07C567.868 517.839 569.329 516.863 570.937 516.197C572.545 515.531 574.269 515.188 576.009 515.188Z" fill="#2F2E41"/>
<path d="M555.439 243.222C567.515 243.222 577.305 233.431 577.305 221.354C577.305 209.276 567.515 199.485 555.439 199.485C543.362 199.485 533.572 209.276 533.572 221.354C533.572 233.431 543.362 243.222 555.439 243.222Z" fill="#A0616A"/>
<path d="M568.471 313.77L578.255 291.288C580.632 286.014 581.313 280.133 580.204 274.455C579.096 268.778 576.253 263.584 572.068 259.591C571.209 258.741 570.296 257.947 569.335 257.214C564.507 253.437 558.558 251.378 552.429 251.364C548.307 251.38 544.238 252.285 540.499 254.018C540.178 254.16 539.867 254.311 539.546 254.463C538.932 254.757 538.327 255.077 537.739 255.407C533.906 257.607 530.644 260.678 528.216 264.372C525.788 268.065 524.262 272.277 523.761 276.668L519.443 312.853C518.357 315.693 479.612 418.263 493.163 496.571C493.307 497.407 493.714 498.175 494.326 498.763C494.938 499.351 495.722 499.728 496.563 499.838L510.301 501.708C511.304 501.845 512.321 501.597 513.149 501.014C513.976 500.431 514.552 499.556 514.761 498.565L537.81 388.685C537.954 388.003 538.322 387.388 538.856 386.939C539.39 386.49 540.06 386.234 540.757 386.21C541.454 386.186 542.139 386.397 542.702 386.809C543.265 387.22 543.674 387.809 543.864 388.48L576.431 504.032C576.663 504.872 577.164 505.612 577.857 506.139C578.55 506.667 579.397 506.953 580.268 506.952C580.527 506.951 580.787 506.927 581.042 506.881L597.824 503.649C598.799 503.467 599.672 502.927 600.27 502.134C600.868 501.342 601.148 500.355 601.056 499.367C598.59 471.863 585.485 334.097 568.471 313.77Z" fill="#2F2E41"/>
<path d="M470.461 239.553C470.309 240.853 470.444 242.17 470.857 243.413C471.269 244.655 471.949 245.791 472.848 246.742C473.747 247.693 474.844 248.436 476.061 248.917C477.278 249.398 478.586 249.607 479.893 249.528L492.115 278.903L501.361 265.196L488.337 239.403C488.059 237.216 486.988 235.208 485.329 233.759C483.669 232.309 481.536 231.518 479.332 231.537C477.129 231.555 475.009 232.382 473.373 233.859C471.738 235.336 470.702 237.362 470.461 239.553Z" fill="#A0616A"/>
<path d="M554.227 343.348C555.526 343.193 556.776 342.754 557.888 342.064C558.999 341.373 559.946 340.447 560.662 339.351C561.377 338.255 561.843 337.015 562.027 335.719C562.212 334.423 562.11 333.103 561.729 331.851L587.445 313.119L571.962 307.32L549.916 325.997C547.855 326.777 546.151 328.286 545.128 330.238C544.105 332.19 543.834 334.449 544.365 336.588C544.897 338.726 546.194 340.596 548.012 341.842C549.829 343.088 552.04 343.624 554.227 343.348Z" fill="#A0616A"/>
<path d="M512.305 298.487C511.319 298.486 510.336 298.389 509.368 298.197C507.029 297.752 504.836 296.738 502.981 295.245C501.126 293.752 499.667 291.825 498.732 289.635L481.608 268.753C481.246 268.312 480.982 267.798 480.835 267.247C480.688 266.695 480.66 266.118 480.754 265.555C480.847 264.992 481.06 264.455 481.378 263.981C481.696 263.507 482.112 263.106 482.597 262.805L494.78 255.263C495.23 254.985 495.73 254.798 496.253 254.714C496.775 254.63 497.309 254.65 497.823 254.774C498.338 254.897 498.822 255.121 499.25 255.433C499.677 255.744 500.039 256.138 500.313 256.59L512.382 276.475L535.495 259.392C537.336 258.427 539.462 258.157 541.485 258.63C543.508 259.103 545.294 260.289 546.515 261.97C547.737 263.651 548.313 265.715 548.138 267.786C547.964 269.856 547.05 271.795 545.564 273.248L522.495 294.293C519.785 296.981 516.122 298.488 512.305 298.487Z" fill="#2F2E41"/>
<path d="M574.758 329.892C574.726 329.892 574.695 329.892 574.664 329.891C574.102 329.878 573.549 329.746 573.041 329.505C572.534 329.264 572.082 328.919 571.716 328.493L560.885 315.856C560.516 315.425 560.242 314.922 560.082 314.378C559.923 313.834 559.88 313.262 559.958 312.701C560.035 312.139 560.231 311.6 560.532 311.12C560.833 310.64 561.232 310.229 561.704 309.914L581.986 296.392L563.612 274.3C562.543 272.518 562.151 270.411 562.507 268.363C562.864 266.316 563.945 264.465 565.553 263.149C567.161 261.833 569.189 261.14 571.266 261.195C573.343 261.251 575.331 262.053 576.866 263.453L599.197 285.278C600.955 286.884 602.296 288.892 603.107 291.131C603.918 293.369 604.173 295.771 603.851 298.13C603.53 300.489 602.64 302.734 601.26 304.674C599.879 306.613 598.049 308.189 595.925 309.265L577.673 328.634C577.298 329.031 576.846 329.347 576.345 329.564C575.844 329.78 575.304 329.892 574.758 329.892Z" fill="#2F2E41"/>
<path d="M549.879 283.327C549.705 283.327 549.531 283.316 549.359 283.294C548.605 283.202 547.892 282.896 547.307 282.412C546.721 281.927 546.287 281.285 546.056 280.561L537.916 255.605C537.712 254.974 537.744 254.291 538.005 253.681C538.265 253.071 538.738 252.577 539.335 252.289L539.599 252.164C539.839 252.05 540.076 251.938 540.318 251.83C544.114 250.069 548.245 249.151 552.429 249.138C557.86 249.148 563.17 250.744 567.707 253.73C568.315 254.134 568.74 254.762 568.891 255.477C569.041 256.192 568.904 256.938 568.51 257.553L553.241 281.475C552.883 282.043 552.387 282.511 551.799 282.835C551.211 283.159 550.55 283.328 549.879 283.327Z" fill="#E6E6E6"/>
<path d="M580.554 204.43C585.381 204.43 589.294 200.517 589.294 195.69C589.294 190.863 585.381 186.949 580.554 186.949C575.727 186.949 571.814 190.863 571.814 195.69C571.814 200.517 575.727 204.43 580.554 204.43Z" fill="#2F2E41"/>
<path d="M550.595 186.083C544.456 186.083 538.568 188.522 534.227 192.863C529.886 197.204 527.447 203.093 527.447 209.232V219.026H539.492L545.253 209.232L546.981 219.026H583.535L573.742 209.232C573.742 203.093 571.303 197.204 566.962 192.863C562.621 188.522 556.734 186.083 550.595 186.083Z" fill="#2F2E41"/>
<path d="M585.047 189.703C586.013 186.68 588.014 184.096 590.698 182.403C593.381 180.71 596.576 180.017 599.719 180.447C605.289 181.378 609.693 185.856 612.316 190.856C614.94 195.857 616.152 201.454 617.916 206.819C619.68 212.183 622.181 217.577 626.634 221.05C631.087 224.523 637.921 225.465 642.294 221.893C641.794 225.616 640.137 229.088 637.556 231.817C634.976 234.546 631.602 236.395 627.913 237.102C624.224 237.809 620.406 237.338 616.999 235.756C613.593 234.174 610.769 231.561 608.929 228.287C606.621 224.18 606.026 219.368 605.341 214.708C604.657 210.047 603.768 205.225 601.013 201.405C598.257 197.585 593.1 195.09 588.723 196.83L585.047 189.703Z" fill="#2F2E41"/>
<path d="M300.868 203.037C292.9 203.036 285.259 199.87 279.625 194.236C273.991 188.601 270.826 180.959 270.826 172.991C270.825 167.556 270.829 163.401 270.837 162.81C271.091 144.196 275.778 125.91 284.511 109.47C270.163 129.114 262.274 152.732 261.935 177.056C261.926 177.647 261.922 181.802 261.923 187.237C261.923 195.205 265.089 202.847 270.722 208.482C276.356 214.116 283.997 217.282 291.965 217.283C298.512 217.281 304.879 215.141 310.1 211.189C315.32 207.237 319.108 201.69 320.888 195.389C315.387 200.322 308.256 203.046 300.868 203.037Z" fill="#3F3D56"/>
<path d="M381.711 123.858C390.922 124.298 399.889 126.967 407.841 131.636C415.793 136.305 422.494 142.835 427.367 150.664C432.241 158.494 435.141 167.389 435.82 176.586C436.498 185.784 434.935 195.008 431.263 203.468C436.574 197.231 440.477 189.922 442.707 182.039C444.937 174.156 445.441 165.885 444.185 157.79C442.929 149.695 439.942 141.966 435.428 135.13C430.915 128.293 424.98 122.511 418.03 118.176C411.079 113.842 403.275 111.057 395.151 110.012C387.026 108.967 378.772 109.686 370.951 112.121C363.13 114.556 355.925 118.648 349.829 124.12C343.732 129.591 338.887 136.313 335.624 143.827C341.264 137.191 348.353 131.94 356.343 128.478C364.334 125.015 373.013 123.435 381.711 123.858Z" fill="#3F3D56"/>
<path d="M390.954 390.014C382.826 390.016 375.023 386.822 369.228 381.122C363.434 375.421 360.113 367.671 359.981 359.543C359.604 335.988 359.409 306.965 359.409 303.648C359.403 295.579 360.565 287.552 362.857 279.815L362.846 279.813C364.2 275.929 365.835 272.15 367.738 268.504C361.896 276.29 357.247 284.902 353.944 294.058L353.954 294.061C351.662 301.798 350.501 309.825 350.506 317.894C350.506 321.211 350.701 350.234 351.078 373.789C351.21 381.917 354.531 389.667 360.326 395.367C366.12 401.068 373.923 404.262 382.051 404.26C388.753 404.259 395.273 402.084 400.635 398.063C405.996 394.042 409.91 388.391 411.788 381.957C406.093 387.151 398.661 390.025 390.954 390.014Z" fill="#3F3D56"/>
<path d="M112.657 518.713L123.571 518.712L128.764 476.609L112.654 476.61L112.657 518.713Z" fill="#FFB8B8"/>
<path d="M144.622 528.848L110.319 528.849L110.318 515.594L131.368 515.593C134.883 515.593 138.254 516.99 140.74 519.475C143.225 521.961 144.622 525.332 144.622 528.848Z" fill="#2F2E41"/>
<path d="M73.4851 518.713L84.3991 518.712L89.5921 476.609L73.4824 476.61L73.4851 518.713Z" fill="#FFB8B8"/>
<path d="M105.449 528.848L71.146 528.849L71.1454 515.594L92.1951 515.593C95.7102 515.593 99.0813 516.99 101.567 519.475C104.053 521.961 105.449 525.332 105.449 528.848Z" fill="#2F2E41"/>
<path d="M83.0224 505.764L72.3612 505.203C71.8115 505.175 71.273 505.037 70.7768 504.798C70.2807 504.56 69.8368 504.225 69.471 503.814C69.1051 503.402 68.8245 502.923 68.6453 502.402C68.4662 501.881 68.3922 501.33 68.4275 500.781L81.1698 359.688L139.849 375.524L145.503 373.982L127.823 498.886C127.673 499.826 127.206 500.686 126.501 501.325C125.795 501.963 124.893 502.342 123.943 502.398L112.451 502.934C111.876 502.966 111.301 502.878 110.762 502.677C110.223 502.475 109.732 502.164 109.319 501.762C108.906 501.361 108.581 500.878 108.365 500.345C108.148 499.812 108.044 499.24 108.06 498.664L110.143 423.699C110.152 423.352 110.032 423.014 109.805 422.752C109.578 422.49 109.261 422.322 108.917 422.282C108.573 422.242 108.226 422.332 107.944 422.535C107.663 422.738 107.468 423.038 107.398 423.378L87.3157 502.454C87.1261 503.392 86.6171 504.235 85.8753 504.84C85.1335 505.445 84.2049 505.774 83.2479 505.771C83.1732 505.771 83.098 505.769 83.0224 505.764Z" fill="#2F2E41"/>
<path d="M114.617 244.245C126.694 244.245 136.484 234.454 136.484 222.377C136.484 210.299 126.694 200.508 114.617 200.508C102.541 200.508 92.751 210.299 92.751 222.377C92.751 234.454 102.541 244.245 114.617 244.245Z" fill="#FFB8B8"/>
<path d="M78.2112 286.624L80.6154 338.503L81.4846 357.378C81.5192 358.2 81.7982 358.992 82.2857 359.654C82.7733 360.317 83.4473 360.818 84.2216 361.095L140.609 381.523C141.064 381.693 141.547 381.777 142.033 381.773C142.588 381.776 143.138 381.667 143.65 381.452C144.163 381.237 144.626 380.921 145.014 380.524C145.402 380.126 145.705 379.654 145.906 379.136C146.107 378.618 146.202 378.065 146.185 377.51L143.873 284.229C143.721 276.576 140.904 269.215 135.908 263.417C130.911 257.618 124.048 253.744 116.502 252.463C115.957 252.38 115.402 252.297 114.847 252.223C110.168 251.642 105.418 252.094 100.932 253.546C96.4464 254.998 92.3331 257.416 88.882 260.629C85.3084 263.916 82.5004 267.948 80.6565 272.44C78.8126 276.932 77.9779 281.774 78.2112 286.624Z" fill="#CCCCCC"/>
<path d="M167.545 371.171C166.211 370.758 164.993 370.038 163.987 369.069C162.981 368.101 162.215 366.91 161.751 365.593C161.286 364.276 161.136 362.869 161.312 361.483C161.488 360.098 161.986 358.773 162.765 357.614L143.644 332.185L160.144 331.164L175.773 355.468C177.446 356.762 178.61 358.603 179.061 360.67C179.512 362.736 179.222 364.895 178.24 366.769C177.258 368.642 175.649 370.11 173.693 370.915C171.737 371.72 169.561 371.811 167.545 371.171Z" fill="#FFB8B8"/>
<path d="M154.1 353.013C153.594 352.807 153.133 352.503 152.745 352.118C152.356 351.733 152.048 351.275 151.838 350.77L123.03 282.128C122.465 280.784 122.17 279.342 122.162 277.884C122.155 276.426 122.434 274.981 122.985 273.631C123.536 272.281 124.348 271.053 125.374 270.017C126.4 268.981 127.62 268.158 128.964 267.594C130.308 267.029 131.75 266.735 133.208 266.729C134.666 266.722 136.111 267.003 137.46 267.555C138.809 268.107 140.037 268.92 141.072 269.947C142.107 270.974 142.93 272.194 143.493 273.539L172.301 342.182C172.726 343.2 172.731 344.345 172.314 345.366C171.897 346.387 171.091 347.201 170.075 347.629L157.285 352.997C156.782 353.211 156.241 353.322 155.694 353.324C155.148 353.327 154.606 353.221 154.1 353.013Z" fill="#CCCCCC"/>
<path d="M107.587 350.592L135.256 297.607C135.79 296.588 136.706 295.823 137.803 295.478C138.9 295.134 140.09 295.239 141.11 295.77L181.272 316.747C182.291 317.281 183.056 318.197 183.401 319.294C183.745 320.392 183.64 321.581 183.109 322.601L155.439 375.586C154.906 376.605 153.99 377.37 152.893 377.715C151.795 378.059 150.606 377.954 149.586 377.423L109.424 356.446C108.405 355.912 107.639 354.996 107.295 353.899C106.951 352.801 107.056 351.612 107.587 350.592Z" fill="#3F3D56"/>
<path d="M126.142 326.384C125.65 325.077 124.86 323.903 123.834 322.956C122.808 322.009 121.574 321.315 120.232 320.929C118.89 320.543 117.477 320.477 116.104 320.734C114.732 320.992 113.439 321.567 112.328 322.413L85.8166 304.825L85.7715 321.358L110.954 335.526C112.344 337.12 114.251 338.173 116.34 338.502C118.429 338.83 120.567 338.412 122.379 337.322C124.191 336.231 125.562 334.537 126.25 332.537C126.938 330.538 126.9 328.359 126.142 326.384Z" fill="#FFB8B8"/>
<path d="M92.6239 330.103L70.9573 312.938C68.6134 312.151 66.4955 310.807 64.7854 309.021C63.0753 307.235 61.824 305.061 61.1391 302.685C60.4541 300.309 60.3559 297.802 60.8528 295.38C61.3498 292.958 62.4271 290.692 63.9922 288.778L83.6649 262.994C85.032 261.323 86.9547 260.2 89.0814 259.83C91.2082 259.46 93.3969 259.868 95.2476 260.98C97.0983 262.091 98.4873 263.831 99.1608 265.882C99.8342 267.933 99.747 270.158 98.9151 272.15L83.3496 297.615L106.224 308.466C106.756 308.718 107.229 309.08 107.61 309.529C107.992 309.977 108.274 310.501 108.438 311.067C108.602 311.632 108.644 312.226 108.561 312.809C108.479 313.392 108.273 313.951 107.959 314.448L98.7251 329.063C98.413 329.556 98.0007 329.978 97.5151 330.302C97.0294 330.626 96.4812 330.844 95.9058 330.943C95.883 330.947 95.86 330.95 95.837 330.954C95.2717 331.039 94.6949 331.007 94.1423 330.861C93.5896 330.715 93.0728 330.457 92.6239 330.103Z" fill="#CCCCCC"/>
<path d="M98.0941 237.02C98.0003 236.745 97.9705 236.453 98.0071 236.165C98.0437 235.877 98.1456 235.602 98.3052 235.36C98.4647 235.117 98.6775 234.915 98.9274 234.767C99.1773 234.62 99.4576 234.532 99.7468 234.51C100.339 234.542 100.919 234.694 101.45 234.956C101.982 235.219 102.456 235.586 102.841 236.037C103.633 236.949 104.554 237.74 105.576 238.385C106.633 238.918 108.068 238.842 108.671 237.825C109.237 236.871 108.849 235.592 108.507 234.483C107.634 231.662 107.146 228.736 107.055 225.785C106.957 222.49 107.421 219.052 109.245 216.482C111.599 213.166 115.808 211.907 119.791 211.998C123.774 212.089 127.693 213.319 131.638 214.096C133 214.364 134.601 214.502 135.512 213.446C136.481 212.323 136.125 210.506 135.713 208.991C134.644 205.058 133.51 200.991 131.026 197.815C128.34 194.514 124.503 192.354 120.288 191.769C116.242 191.268 112.134 191.734 108.303 193.13C102.061 195.097 96.5684 198.924 92.56 204.098C88.4279 209.6 86.6424 216.515 87.5939 223.33C88.5235 229.266 91.6685 234.628 96.3951 238.337L98.0941 237.02Z" fill="#2F2E41"/>
<path d="M375.039 518.887C369.222 516.353 364.072 512.501 359.998 507.636C355.924 502.771 353.036 497.026 351.562 490.853C350.088 484.681 350.069 478.25 351.506 472.069C352.943 465.888 355.797 460.125 359.842 455.236C355.152 458.661 351.244 463.044 348.377 468.095C345.51 473.145 343.75 478.748 343.214 484.531C342.678 490.314 343.378 496.145 345.267 501.636C347.156 507.128 350.192 512.155 354.173 516.384C358.153 520.613 362.988 523.946 368.355 526.164C373.722 528.381 379.5 529.432 385.304 529.245C391.108 529.059 396.806 527.64 402.02 525.083C407.234 522.526 411.845 518.888 415.546 514.413C409.773 518.633 402.996 521.266 395.889 522.051C388.782 522.836 381.593 521.745 375.039 518.887Z" fill="#3F3D56"/>
</svg>
