<svg width="22" height="19" viewBox="0 0 22 19" fill="none" xmlns="http://www.w3.org/2000/svg">
<g clip-path="url(#clip0_208_114)">
<path d="M19.7568 3.16669C19.6735 3.15928 19.5896 3.15928 19.5063 3.16669H2.39518C2.28551 3.16815 2.17657 3.18235 2.07129 3.20891L10.9018 10.8036L19.7568 3.16669Z" fill="#4CD6D4"/>
<path d="M20.6619 3.90039L11.7641 11.5532C11.5351 11.7498 11.2254 11.8601 10.9025 11.8601C10.5796 11.8601 10.2698 11.7498 10.0408 11.5532L1.22247 3.95845C1.19536 4.0445 1.18098 4.13316 1.17969 4.22234V14.7779C1.17969 15.0578 1.30846 15.3263 1.53767 15.5243C1.76688 15.7222 2.07776 15.8334 2.40191 15.8334H19.513C19.8372 15.8334 20.1481 15.7222 20.3773 15.5243C20.6065 15.3263 20.7352 15.0578 20.7352 14.7779V4.22234C20.7304 4.11238 20.7056 4.00375 20.6619 3.90039ZM3.23913 14.7779H2.38969V14.0232L6.83247 10.2179L7.69413 10.9621L3.23913 14.7779ZM19.5008 14.7779H18.6452L14.1902 10.9621L15.0519 10.2179L19.4947 14.0232L19.5008 14.7779Z" fill="#4CD6D4"/>
</g>
<defs>
<clipPath id="clip0_208_114">
<rect width="22" height="19" fill="white"/>
</clipPath>
</defs>
</svg>
