<svg width="18" height="16" viewBox="0 0 18 16" fill="none" xmlns="http://www.w3.org/2000/svg">
<path d="M14.9625 14C13.35 14 11.7782 13.6804 10.2473 13.0413C8.71625 12.4022 7.36 11.5578 6.1785 10.508C4.997 9.45822 4.047 8.25267 3.3285 6.89133C2.61 5.53 2.2505 4.13289 2.25 2.7C2.25 2.5 2.325 2.33333 2.475 2.2C2.625 2.06667 2.8125 2 3.0375 2H6.075C6.25 2 6.40625 2.05 6.54375 2.15C6.68125 2.25 6.7625 2.37778 6.7875 2.53333L7.275 4.86667C7.3 5.02222 7.29675 5.164 7.26525 5.292C7.23375 5.42 7.162 5.53378 7.05 5.63333L5.25 7.26667C5.775 8.06667 6.43125 8.81667 7.21875 9.51667C8.00625 10.2167 8.875 10.8222 9.825 11.3333L11.5875 9.76667C11.7 9.66667 11.847 9.59178 12.0285 9.542C12.21 9.49222 12.388 9.47822 12.5625 9.5L15.15 9.96667C15.325 10 15.4688 10.0751 15.5812 10.192C15.6937 10.3089 15.75 10.4449 15.75 10.6V13.3C15.75 13.5 15.675 13.6667 15.525 13.8C15.375 13.9333 15.1875 14 14.9625 14Z" fill="#4CD6D4"/>
</svg>
