<svg width="24" height="24" viewBox="0 0 24 24" fill="none" xmlns="http://www.w3.org/2000/svg">
<path d="M22.9949 9.99133C23.0444 8.4183 22.7315 6.85704 22.0855 5.45251C21.6472 4.8762 21.0389 4.48728 20.3666 4.35353C17.5859 4.07606 14.7936 3.96233 12.0019 4.01284C9.22027 3.96004 6.43809 4.0701 3.66713 4.34254C3.1193 4.45212 2.61232 4.7347 2.20805 5.15579C1.30862 6.06795 1.20868 7.62851 1.10875 8.9473C0.963751 11.3184 0.963751 13.6976 1.10875 16.0687C1.13766 16.811 1.23816 17.5478 1.40856 18.2667C1.52906 18.8218 1.77285 19.3353 2.11811 19.7613C2.52512 20.2047 3.04391 20.5034 3.60717 20.6185C5.76173 20.911 7.93266 21.0322 10.1031 20.9812C13.6009 21.0362 16.6689 20.9812 20.2966 20.6735C20.8737 20.5654 21.4071 20.2664 21.8257 19.8163C22.1055 19.5085 22.3144 19.1317 22.4353 18.7173C22.7927 17.5113 22.9682 16.2491 22.955 14.9807C22.9949 14.3653 22.9949 10.6507 22.9949 9.99133ZM9.7433 15.6401V8.8374L15.6596 12.2552C14.0006 13.2663 11.812 14.4093 9.7433 15.6401Z" fill="#4CD6D4"/>
</svg>
